<?xml version="1.0" encoding="UTF-8" standalone="no"?>
<svg
   xmlns:dc="http://purl.org/dc/elements/1.1/"
   xmlns:cc="http://creativecommons.org/ns#"
   xmlns:rdf="http://www.w3.org/1999/02/22-rdf-syntax-ns#"
   xmlns:svg="http://www.w3.org/2000/svg"
   xmlns="http://www.w3.org/2000/svg"
   version="1.1"
   id="svg3336"
   height="81"
   width="195">
  <defs
     id="defs3370" />
  <metadata
     id="metadata3349">
    <rdf:RDF>
      <cc:Work
         rdf:about="">
        <dc:format>image/svg+xml</dc:format>
        <dc:type
           rdf:resource="http://purl.org/dc/dcmitype/StillImage" />
        <dc:title></dc:title>
      </cc:Work>
    </rdf:RDF>
  </metadata>
  <g
     transform="translate(-2.194502,-0.06057431)"
     id="g3342">
    <title
       id="title3344">NOVA</title>
    <g
       id="svg_1"
       style="font-weight:700;font-size:24px;font-family:Montserrat;text-anchor:middle;fill:#555555;stroke:none;stroke-width:0"
       transform="matrix(2.5823,0,0,2.5823,43.6167,-48.5595)">
      <path
         id="path3352"
         style="font-weight:700;font-size:24px;font-family:Montserrat;text-anchor:middle;fill:#555555;stroke:none;stroke-width:0"
         d="m -13.51034,43.007992 0,-16.78125 3.503907,0 8.2382808,10.804687 0,-10.804687 3.7382812,0 0,16.78125 -3.7382812,0 -7.9921875,-10.511719 0,10.511719 -3.7500003,0 z" />
      <path
         id="path3354"
         style="font-weight:700;font-size:24px;font-family:Montserrat;text-anchor:middle;fill:#555555;stroke:none;stroke-width:0"
         d="m 7.6654415,40.687679 q -2.5429687,-2.484375 -2.5429687,-6.175781 0,-3.691406 2.5429687,-6.175781 2.5429685,-2.484375 6.2578125,-2.484375 3.726563,0 6.269531,2.484375 2.542969,2.484375 2.542969,6.175781 0,3.691406 -2.542969,6.175781 -2.542968,2.484375 -6.269531,2.484375 -3.714844,0 -6.2578125,-2.484375 z m 2.7421875,-9.984375 q -1.4414062,1.582032 -1.4414062,3.832032 0,2.238281 1.4414062,3.808593 1.441406,1.570313 3.539063,1.570313 2.097656,0 3.539062,-1.570313 1.441406,-1.570312 1.441406,-3.808593 0,-2.25 -1.441406,-3.832032 -1.441406,-1.59375 -3.539062,-1.59375 -2.097657,0 -3.539063,1.59375 z" />
      <path
         id="path3356"
         style="font-weight:700;font-size:24px;font-family:Montserrat;text-anchor:middle;fill:#555555;stroke:none;stroke-width:0"
         d="m 23.403723,26.226742 4.054687,0 4.277344,10.6875 4.265625,-10.6875 4.054688,0 -6.738282,16.78125 -3.175781,0 -6.738281,-16.78125 z" />
      <path
         id="path3358"
         style="font-weight:700;font-size:24px;font-family:Montserrat;text-anchor:middle;fill:#555555;stroke:none;stroke-width:0"
         d="m 38.825598,43.007992 7.242187,-16.78125 3.632813,0 7.242187,16.78125 -3.984375,0 -1.558593,-3.621094 -7.03125,0 -1.558594,3.621094 -3.984375,0 z m 6.960937,-6.914063 4.195313,0 -2.085938,-4.875 -2.109375,4.875 z" />
    </g>
  </g>
</svg>
